<?xml version="1.0" encoding="utf-8"?>
<!-- Generator: Adobe Illustrator 21.1.0, SVG Export Plug-In . SVG Version: 6.00 Build 0)  -->
<svg version="1.1" id="Layer_1" xmlns="http://www.w3.org/2000/svg" xmlns:xlink="http://www.w3.org/1999/xlink" x="0px" y="0px"
	 viewBox="0 0 2305.3 2303.8" style="enable-background:new 0 0 2305.3 2303.8;" xml:space="preserve">
<style type="text/css">
	.st0{fill:#09306C;}
</style>
<g>
	<path class="st0" d="M2305.3,1137.9c-4.2,648.9-502.6,1148.2-1118.5,1165.7C519.5,2322.6,1,1786.8,0,1155.3
		C-1,527.7,494.2,22.8,1106.1,0.6c332.1-12,620.4,99.7,856.9,333.3C2189.7,557.7,2299.2,833.5,2305.3,1137.9z M415.3,1254.4
		c11.7,23.4,18.5,47.5,16.2,73.5c-3.2,35.4-19.3,62.7-51.1,79.5c-39.8,21.1-89.2,9.6-121.4-20.1c-33.6-31-42.3-71-33-114.5
		c9.3-43.7,35-74.1,78.7-87.6c7.9-2.5,16.1-4.4,23.9-7.1c2.4-0.8,4.3-3.3,6.4-5.1c-2-2-3.6-4.9-5.9-5.7c-7.8-2.8-16-4.7-23.9-7.2
		c-18.1-5.7-37.2-9.4-53.9-17.9c-47.4-24.3-93.7-50.7-140.5-76.1c-7.3-4-14.7-7.9-22.3-11.2c-8.7-3.8-11.4-2.3-12.3,7.3
		c-1.3,13.6-2.2,27.2-2.7,40.9c-1.7,40.6-1,81.2,1.6,121.8c3.6,55,11.2,109.3,23.5,162.9c49.3,216,154.7,400.1,316,551.9
		c26.7,25.1,55.7,47.6,83.9,71.1c8.2,6.9,8.9,6.5,18.3,0.4c6.4-4.2,12.7-8.6,19.1-12.8c12-7.9,12.4-8,20.5,3.7
		c13.4,19.2,28.5,36.9,46.4,52.1c15.9,13.6,33.7,17.1,52.9,8.6c9.7-4.3,18.7-10.2,28.1-15.1c10.9-5.7,21.6-12,33-16.5
		c17.7-7,33.4-2,46.6,11.1c4,4,7.8,8.3,10.9,13c6.2,9.5,11.6,19.5,17.7,29c10.7,16.5,20.7,33.5,32.7,48.9
		c24.7,31.6,57.9,48.8,98,50.7c37.8,1.9,72.4-9.1,103.6-30.4c32.8-22.4,57.6-52.3,77.8-86.2c23.9-40.1,40.5-83.2,49.2-129.1
		c2-10.4,1-11.7-9.7-11.7c-7.7,0-15.3,0.4-23,0.6c-21,0.6-41.9,1.5-62.9,1.8c-45,0.6-89.8-2.9-134.4-8.7c-19.4-2.5-38.8-6.3-57.5-12
		c-22.4-6.9-31.3-25.6-25.4-48.2c6.1-23.4,21.8-40,39.4-55.3c16.4-14.2,36.1-22.4,55.8-30.6c2.8-1.2,4.7-4.6,7.1-6.9
		c-3-1.5-5.9-3.9-9.1-4.4c-7.5-1.3-15.4-0.9-22.8-2.5c-12.6-2.7-25.4-5.4-37.3-10.1c-12.9-5.1-20.4-16.1-22.2-29.9
		c-1-7.1-0.6-14.7,0.7-21.8c3.4-19.2,11.7-36.7,21-53.7c29.1-53.6,69.4-97.5,115.9-136.2c16.6-13.8,17.8-13.4-0.1-27
		c-0.5-0.4-1-0.9-1.5-1.3c-84.7-66.9-172.9-127.8-271.6-172.9c-72.5-33.1-145.8-63.8-221.9-87.4c-23.4-7.3-47.8-11.8-71.8-16.8
		c-12.9-2.7-14.3-0.9-14.6,12.3c-0.1,5.3-0.7,10.6-0.9,16c-0.4,8.7-0.9,17.3-0.8,26c0,2.1,2.5,4.1,3.8,6.1c1.8-1.6,3.7-3.1,5.2-4.9
		C415.3,1257.3,415.1,1255.7,415.3,1254.4z M1128.8,2231.8c52.5,0.3,99-2.3,145.4-7.4c64.7-7.2,128.2-20.3,190.4-39.2
		c162.8-49.6,306.2-132.7,430.2-249.4c42.6-40.1,81.3-83.6,116.6-130.2c6.8-9,6.8-9.1,0.7-18.3c-4.8-7.2-9.8-14.3-14.6-21.5
		c-6-9-5.8-10.6,3.3-16.8c19.2-13,36-28.4,51.8-45.3c16.4-17.5,19.3-36.7,9.4-57.9c-4.9-10.5-11.4-20.3-16.7-30.7
		c-5.1-10.1-10.4-20.1-14.2-30.7c-5.7-16-1.5-30.7,10.6-42.1c9.1-8.6,19.5-16.2,30-23c17-11.1,35.3-20.2,51.8-32
		c58-41.4,72.7-101,52.1-165.1c-11.6-36.1-33.9-64.7-62.1-89c-51-43.9-110.9-69.1-176.1-82.9c-8.8-1.9-10.3-0.8-10,8
		c0.5,18,1.5,35.9,2,53.9c1.7,59.4-1.7,118.5-10.3,177.3c-2.5,17-6.4,34.1-11.5,50.5c-5.6,17.8-18.9,25.4-37.7,24.8
		c-12.1-0.4-22.7-5-32.5-11.5c-21.9-14.5-38.3-34-50.2-57.2c-5-9.8-8.8-20.1-13.5-30c-1-2-3.6-3.3-5.5-4.9c-1.5,1.9-3.2,3.8-4.5,5.9
		c-0.6,1-0.2,2.6-0.4,3.9c-1.9,13.5-3.6,27.1-5.9,40.5c-4.4,25.3-18.2,40.2-42.3,42c-11.1,0.8-23.4-2-33.9-6.2
		c-51.7-20.7-97-51.4-135.6-91.6c-15-15.6-29-32.1-43.6-48.1c-6.3-6.9-8.2-6.8-14.3,0.1c-1.1,1.2-2.2,2.5-3.1,3.9
		c-27.5,37.3-56.1,73.7-82.1,112c-24.7,36.3-49.1,73.2-69.2,112.2c-34.6,67.2-65.1,136.5-90.9,207.7
		c-16.6,45.7-31.2,92.1-39.5,140.2c-2,11.4-1,12.6,10.9,12.5c14.2-0.1,27.5-4.1,40.6-9.2c23.4-9.2,47.1-16.7,72.8-14.8
		c29.5,2.2,53.9,14.3,72.1,37.8c31.1,40.1,22.8,95.9-11.4,135.1c-21.4,24.6-50.1,35.1-82.7,36.2c-53.6,1.8-104.5-28.9-120.1-83.6
		c-2.2-7.7-4.2-15.4-6.7-23c-0.7-2.2-3.2-3.8-4.9-5.6c-1.8,1.7-4.1,3.1-5.4,5.1c-1.3,2.2-1.6,5-2.4,7.6c-9.8,32.1-17.1,65-34.2,94.6
		c-21.1,36.6-41.1,74-61.5,111c-4.8,8.7-9.8,17.4-14,26.4c-4.9,10.3-3.3,13.2,8,14C1087.4,2229.3,1111,2230.7,1128.8,2231.8z
		 M374.1,1058.8c0.2-49.1,4.3-97.9,11.3-146.4c2.4-16.7,6.2-33.5,11.5-49.5c6.4-19.3,24.3-28.6,43.8-23.2c11,3,22,8,31.5,14.4
		c21.1,14.3,36.4,34,47.2,57.1c3.9,8.5,7.1,17.3,11.1,25.7c1.1,2.3,3.9,3.9,6,5.8c1.5-2.2,3.9-4.3,4.5-6.8c1.2-4.8,1.3-9.9,2-14.8
		c2.1-16.5,3-33.2,11-48.4c7.9-14.9,20.2-23.4,37-22.6c10.8,0.5,22.1,2.1,32.1,6.1c48,18.9,90.4,46.9,127.1,83.1
		c18,17.8,34.3,37.2,51.5,55.8c7.5,8.2,9.4,8.3,16.1-0.7c29.5-39.5,60-78.4,87.7-119.1c24-35.2,46.9-71.4,66.6-109.1
		c30.4-58.1,56.2-118.5,79.8-179.9c20.8-54.2,40.3-108.7,49.7-166.2c1.9-11.7-0.7-15.2-12.4-13c-14,2.6-27.9,6.2-41.4,10.6
		c-26,8.6-51.6,18-79.8,12.6c-37.4-7.1-65-26.9-76.6-63.5c-13.9-44-0.4-82.7,31.4-114.1c28.1-27.7,63.8-35.2,101.9-28.5
		c44.9,7.9,77.8,31.8,92.8,76.5c3.1,9.1,5.2,18.6,8.4,27.7c0.8,2.3,3.7,3.9,5.7,5.8c1.7-1.8,4.2-3.4,5-5.6c3-8.5,5.5-17.1,8.1-25.7
		c5-16.2,7.7-33.6,15.4-48.5c24.3-47.4,50.5-93.8,75.9-140.7c4.9-9.1,9.8-18.2,14-27.6c2.9-6.5,0.9-9.4-6.2-9.9
		c-21.6-1.5-43.2-3.4-64.8-3.9c-57.7-1.4-115.1,1.7-172.3,9.5c-57.8,8-114.6,20.3-170.4,37.4c-159.3,49.1-299.9,130.5-422,244
		c-45,41.8-85.5,87.8-123,136.5c-3.9,5-4.3,9.2-0.4,14.3c3.5,4.5,6.4,9.3,9.5,14.1c14.1,21.2,14.8,16.9-5.3,32.7
		c-15.1,11.9-29.6,24.9-42.9,38.7c-18.2,19-20.3,38-8.3,61.4c4.8,9.5,11.2,18.2,15.9,27.7c5.2,10.4,10,21,13.7,32
		c5.3,15.8,0.7,30-10.9,41.1c-8.3,8-18,14.7-27.8,21c-17.9,11.5-37,21.3-54.4,33.6c-54.2,38.3-73.4,99.8-51.9,164.5
		c13.2,39.7,38.7,70.4,70.5,96.2c49.2,39.9,106.4,62.6,167.7,76.1c9.4,2.1,11.6-0.4,11.1-10.6
		C376.5,1114.7,375.3,1086.8,374.1,1058.8z M2232.3,1159.3c-1-72.8-6.1-134.7-17.1-196.2c-21.8-122.2-63.3-237.2-124.6-345.1
		c-72.7-128-168-236.5-285.1-325.8c-5.9-4.5-10.6-5.6-16.8-0.9c-7.7,5.8-16,10.9-23.8,16.5c-5.8,4.2-10.2,3.5-14.1-2.6
		c-2.5-3.9-5.4-7.6-8.2-11.3c-12.8-17.2-26.8-33.2-43.6-46.6c-13.8-11-29.4-14.5-45.9-7.9c-10.8,4.3-20.7,10.5-31.1,15.7
		c-11.9,5.9-23.4,13-35.8,17.3c-17.1,6-33.6,2.6-45.5-11.6c-9.3-11.1-16.8-23.9-24.9-36c-12.5-18.8-23.3-39.1-37.6-56.4
		c-31.9-38.7-74.4-54.1-123.8-47.4c-49.8,6.8-89.5,32.2-121.7,70.3c-42.5,50.3-68,108.6-81.5,172.6c-2.5,12-0.4,13.9,11.9,13.2
		c23.6-1.3,47.2-2.8,70.8-3.1c51-0.7,101.8,3.3,152.3,10.3c17.7,2.5,35.6,5.8,52.6,11.1c21.6,6.7,31.4,25.9,24.8,47.5
		c-3.4,11.2-9,22.3-15.9,31.9c-14.6,20.5-34.7,34.8-57.5,45.3c-7,3.2-14.3,5.6-21.1,9c-3,1.5-5.2,4.4-7.8,6.6
		c2.8,1.7,5.5,4.3,8.6,4.8c9.5,1.6,19.1,2.4,28.7,3.5c12.7,1.5,25,4.4,35.8,11.4c12,7.8,19.6,18.7,18.9,33.1
		c-0.5,11.1-1.8,22.7-5.4,33.2c-12.6,36.7-34.5,68.2-57.6,98.9c-22.8,30.3-52,54.4-80.2,79.3c-10.3,9.1-10.6,10.6,0.2,18.6
		c35.2,26.3,69.8,53.7,106.2,78.3c39.2,26.4,79,52.5,120.7,74.4c47.7,25,97.6,46.1,147.2,67.3c64.4,27.5,130.5,50.3,199.8,62.5
		c10.4,1.8,12.7,0,12.4-10.6c-0.4-15.5-4.7-30.1-10.7-44.4c-9.7-23-15.1-46.7-13.2-72c2.8-38.1,29-73.5,65.6-83.8
		c44.2-12.4,82.8,0.4,113.8,33c28,29.4,34.7,66.4,26.9,105.3c-8.7,43.2-33.2,74.2-75.9,89c-8.8,3-17.9,5.2-26.7,8.1
		c-2.5,0.8-4.5,3.2-6.8,4.9c2.3,2,4.2,4.8,6.9,5.9c5.8,2.3,12.1,3.7,18.1,5.7c20.6,6.7,42.3,11,61.4,20.6
		c46.6,23.6,92,49.7,137.8,74.8c6.4,3.5,12.8,7.1,19.5,10c11.6,5.1,14.4,3.5,15.1-8.8C2230,1208.8,2231.4,1178.8,2232.3,1159.3z
		 M1155.1,1530.7c49-0.1,95.8-10.4,141.1-28.8c7.8-3.2,13.1-8,17.8-15c33.7-50.8,66.3-102.4,102.3-151.6
		c33.6-46,70.8-89.3,106.2-133.9c2.6-3.3,5.2-7.1,6.1-11.1c1.4-6.8,1.8-13.9,2.1-20.8c2.2-54.7-6.5-107.4-26.7-158.4
		c-4.1-10.2-10.1-17.1-19.4-22.8c-67.3-40.9-131.9-85.6-193.8-134.3c-29.9-23.5-59-47.9-88.3-72c-5.3-4.4-10.8-7.6-17.9-7.5
		c-18.3,0.1-36.6-0.6-54.8-0.1c-43.1,1.4-84.2,11.5-123.9,28.1c-6.5,2.7-10.8,6.9-14.7,12.7c-34.6,51.8-68,104.5-104.7,154.8
		c-32.9,45.2-69.6,87.7-104.4,131.5c-2.8,3.5-5.6,7.7-6.4,12c-1.5,8.5-2,17.2-2.2,25.8c-1.4,54.3,7.8,106.7,28.9,157
		c3.1,7.5,7.6,12.6,14.3,17.1c50.8,33.7,102.5,66.3,151.7,102.1c46,33.5,89.5,70.5,133.9,106.2c4.9,3.9,9.7,6.5,16.1,6.8
		C1130.5,1529,1142.8,1530,1155.1,1530.7z M1784.8,1134.8c-38.2,0.9-75.9,4.1-113.2,11.7c-31.9,6.4-62.6,16-89.3,35.5
		c-18.6,13.6-32.9,30.7-38,53.4c-8.3,36.9-1.5,71.5,23,100.4c30.3,35.7,67.6,63.2,109.9,83.3c10.3,4.9,22.1,7.1,33.5,8.6
		c11.5,1.5,16.9-2.7,19.7-13.8c2.9-11.2,4.8-22.8,6.3-34.3c3.2-25.1,5.7-50.2,8.8-75.3c0.7-5.6,2.1-11.1,4-16.4
		c2.4-6.7,8.7-10.3,15.8-9.7c6.8,0.5,10.9,4.2,12.5,10.9c2.3,9.7,5,19.3,7.5,29c7.1,27.1,15.1,53.9,30.3,77.9
		c9.9,15.7,22.1,29.2,38.7,38.1c21.1,11.3,29.6,7.7,34.3-15.8c3.7-18.6,6.2-37.4,8.7-56.2c7.5-56.6,9.5-113.4,4.9-170.4
		c-1.1-13.3-2.1-26.5-2.9-39.8c-0.4-6.6-3.6-9.2-10.1-9.6C1854.5,1139.9,1819.6,1137.3,1784.8,1134.8z M520.9,1168.6
		c22-1.5,44.6-2.6,67.2-4.7c33.9-3.1,67.2-9.7,98.8-22.8c20.8-8.6,39.6-20.4,54.7-37.5c35.3-39.9,21.4-105.8-3.1-134.4
		c-25.5-29.7-55.8-53.4-89.4-73c-12.8-7.5-26.7-13.8-40.8-18.3c-24.4-7.9-33.4-2.3-37.3,23c-4.2,26.9-6.4,54.2-9.9,81.2
		c-1.4,10.9-3.2,21.7-5.9,32.3c-2.1,8.1-7,10.2-16.1,10.2c-7.7,0-11.5-3.8-13.1-11c-1.5-6.8-3.4-13.6-5.2-20.3
		c-7.5-28.7-15.1-57.4-30.6-83.1c-9.8-16.2-21.6-30.7-38.6-39.7c-25.2-13.4-32.5-7.4-36.2,15.8c-5.1,31.8-8.7,63.9-12.3,95.9
		c-4.7,41.5-4,83.1-1.3,124.7c0.9,14.9,2.3,29.9,3.1,44.8c0.3,6.7,3.4,9.6,9.8,10C449.9,1164,485.1,1166.3,520.9,1168.6z
		 M1235.6,400.3c0-0.3,0-0.6,0-0.9c-26.9,1.6-53.8,3.3-80.7,4.8c-10.6,0.6-11.9,1.3-12.9,12.1c-1.3,13.9-2,27.9-3,41.8
		c-3.3,48.9-4.8,97.7,2.3,146.5c5.5,37.5,15.8,73.5,34.4,106.8c11.2,20.2,26.4,36.6,48.5,44c42.3,14.2,81.6,7.7,115.6-22
		c12.7-11.1,24.2-23.9,35-37c21.7-26.3,41-54.3,51.4-87.3c7.8-24.5,2-34.4-23.3-38.5c-22.3-3.6-44.8-5.4-67.2-8.3
		c-14.5-1.9-29-3.6-43.4-6.4c-9.6-1.8-13.2-7.2-13.4-16c-0.2-8.3,2.9-12.1,13.1-14.9c9.3-2.5,18.8-4.5,28-7.1
		c26.6-7.5,53.3-14.8,77-29.9c18-11.5,33-26,41.1-46.3c5.5-13.8,2.5-19.5-11.4-24.2c-1.6-0.5-3.2-1-4.8-1.3
		c-17.3-2.9-34.6-6.5-52.1-8.5c-26.7-3-53.6-5.6-80.4-7.2C1271.6,399.5,1253.6,400.3,1235.6,400.3z M1168.8,1763.8
		c-2.5-23.3-4.5-49.5-8.2-75.5c-4.5-31.5-12.9-62-28.4-90.1c-19.5-35.5-52.9-65-107-55.8c-22.3,3.8-43,11.1-60.2,26.8
		c-32.5,29.5-58.3,63.9-78,103c-4.3,8.5-7.5,17.8-9.9,27.1c-5.1,19.8-0.3,28.6,19.6,32.4c20.6,3.9,41.5,5.5,62.3,8.4
		c18.1,2.5,36.3,4.9,54.3,8.1c8.4,1.5,12.2,7.3,12.2,15.8c0.1,8.1-2.6,11.5-11.2,14.2c-2.9,0.9-5.8,1.4-8.7,2.2
		c-20.8,5.9-41.7,11.5-62.4,17.8c-16.7,5.1-32,13.2-45.7,24.2c-14.5,11.6-26.6,25.3-32.6,43.3c-3.1,9.4-0.9,14.7,8.3,18.3
		c6.5,2.5,13.3,4.5,20.1,5.8c47.6,8.8,95.6,13.6,143.9,13.8c37.3,0.1,74.5-2.4,111.8-3.9c10.6-0.4,12.6-2.3,13.5-13.2
		c1.5-16.2,2.7-32.5,3.5-48.8C1167.1,1814.1,1167.8,1790.4,1168.8,1763.8z M407.7,1318c-1.1-7.5-1.5-15.2-3.3-22.6
		c-2.7-11.3-6.8-22.3-9.5-33.6c-4.3-17.4-8-35-12-52.5c-2.3-10.2-3.8-11.6-14.3-10.8c-12.2,0.9-24.6,1.8-36.6,4.1
		c-27.8,5.3-51.6,17.9-68,41.7c-19.9,28.9-19.9,60.1-9.8,92.6c9.8,31.2,51.6,63.7,98.3,53.8C386.7,1383.6,407,1355.5,407.7,1318z
		 M1943.8,1104.1c18.2-0.9,38.5-3.5,57.6-12.4c37.1-17.4,58.5-54.2,55-94.7c-3.7-42.8-26.7-71.7-66.2-83
		c-40.9-11.7-79.6,9-90.2,48.6c-4.3,16-4,32.2,0.3,48.3c6.8,25.4,13.3,50.8,19.6,76.3C1924.7,1106.2,1922.6,1104,1943.8,1104.1z
		 M1299.2,2056c44.9,0,77.7-22.7,90.1-63.2c17.8-58.4-26.7-104.4-82.2-94.6c-33.9,6-67.2,15.9-100.8,23.8c-5.9,1.4-7.5,4.8-7,10
		c1.4,14.2,1.8,28.6,4.4,42.5C1212.8,2023.7,1251.3,2056.1,1299.2,2056z M986.5,406.5c6-0.4,12.1,0,17.9-1.4
		c31-7.5,61.9-15.6,92.9-23.3c5.3-1.3,8.1-4.1,7.7-9.8c-0.7-9.9-1.1-19.9-2-29.8c-4.5-51.2-43.3-101.9-111.3-93.7
		c-23.5,2.8-44.5,11.1-59.6,30.6c-16.1,20.7-24.3,43.7-19.8,69.9C918.8,387.5,953.3,408.7,986.5,406.5z M250.5,735.2
		c-0.8-4.3-0.7-6.4-1.5-8.2c-5.7-12.3-11.5-24.5-17.3-36.7c-6-12.9-12.1-25.7-17.8-38.8c-1.4-3.3-1.2-7.2-2.3-10.7
		c-1.9-5.6-5.8-6.1-9.5-1.4c-1.2,1.5-2.1,3.4-3,5.2c-22.9,42.5-42.3,86.7-59.3,131.9c-5.4,14.3-10.1,28.9-14.7,43.5
		c-0.7,2.1,0.7,4.8,1.1,7.2c2.4-0.5,5-0.6,7.1-1.7c2-1,3.4-3.1,5-4.8c13.9-14.9,29.4-28,47.3-37.9c9.6-5.3,19.4-10.4,28.7-16.2
		c9.8-6.2,19.5-12.8,28.5-20C246.6,743.3,248.6,738,250.5,735.2z M2176.1,1473.8c-3.5,3-5.9,4.7-7.9,6.8
		c-18.3,20.3-40.3,35.6-64,48.8c-13.6,7.6-26.9,16-39.5,25.2c-12.4,9-13.9,15.3-7.6,29.2c5.5,12.1,13,23.2,18.8,35.2
		c5.7,12,10.2,24.5,15.4,36.7c1.7,4,3.9,7.7,5.9,11.5c2.7-3.1,6.2-5.7,8.1-9.3c29.6-54.2,52.9-111.1,72.5-169.5
		c0.8-2.5,2.1-5.2,1.9-7.7C2179.6,1478.7,2177.7,1476.8,2176.1,1473.8z M1568.9,250.2c3.7-0.7,5.5-0.7,6.9-1.4
		c12.4-5.6,25.2-10.4,36.9-17.2c15-8.9,29.9-17.6,47.5-19.9c0.7-0.1,1.5-0.1,1.9-0.4c2-1.6,4.6-3,5.4-5.1c0.4-1.1-2.1-3.8-3.8-5.2
		c-1.7-1.5-4-2.3-6.1-3.3c-26.8-12.7-53.2-26.3-80.5-37.8c-29.4-12.4-59.6-22.9-89.7-33.8c-3.2-1.2-7.3,0.2-10.9,0.4
		c1.7,3.3,3.3,6.6,5,9.8c0.3,0.6,0.9,0.9,1.4,1.4c16.6,15.3,30.4,32.6,41.1,52.5c5.2,9.7,10.5,19.4,16.4,28.6
		c5.4,8.4,11.3,16.5,17.7,24.1C1561.3,246.5,1566.1,248.4,1568.9,250.2z M734.4,2054c-14.3,0.5-23.5,7-33,12.4
		c-18.8,10.8-37.2,22.3-59,26.2c-1.9,0.3-4.6,2.2-5,3.8c-0.4,1.6,1.4,4.1,2.8,5.6c1.6,1.6,3.9,2.5,6,3.6
		c22.8,11.1,45.1,23.2,68.5,32.8c34.1,14.2,68.9,26.6,103.5,39.6c2.6,1,6.1-0.2,9.1-0.4c-1-2.8-1.1-6.6-3.1-8.3
		c-23.1-20.5-39-46.2-53.9-72.7c-6.6-11.9-14.8-22.9-22.6-34.1C744,2056.8,738.7,2053.4,734.4,2054z"/>
</g>
</svg>
